<?xml version="1.0"?>
<svg version="1.1" xmlns="http://www.w3.org/2000/svg" width="400" height="200" style=""><path fill="#32c77f" d="M16.6083984375,126.630859375q0.10546875-5.5107421875,0.46142578125-10.9951171875t0.61962890625-10.9951171875q0.052734375-2.109375,0.052734375-3.83642578125t0.17138671875-2.99267578125t0.6328125-1.93798828125t1.54248046875-0.67236328125q0.9228515625,0,1.3974609375,0.263671875t0.72509765625,0.67236328125t0.30322265625,0.9228515625t0.052734375,1.04150390625q0,0.7646484375,0.052734375,1.51611328125t0.052734375,1.51611328125q0,5.5634765625-0.30322265625,11.1005859375t-0.30322265625,11.1533203125q0,0.8173828125,0.0263671875,1.64794921875t0.0263671875,1.70068359375q0,0.31640625-0.2900390625,0.52734375t-0.72509765625,0.35595703125t-0.9228515625,0.19775390625t-0.80419921875,0.052734375q-0.369140625,0-0.83056640625-0.052734375t-0.896484375-0.22412109375t-0.73828125-0.40869140625t-0.30322265625-0.5537109375z M18.0849609375,90.876953125q0-0.263671875,0.0791015625-0.59326171875t0.1845703125-0.59326171875q0.052734375-0.31640625,0.158203125-1.0810546875t0.38232421875-1.48974609375t0.7646484375-1.2919921875t1.38427734375-0.56689453125l0.5009765625,0q0.421875,0.10546875,0.85693359375,0.263671875t0.43505859375,0.7646484375q0,0.263671875-0.0263671875,0.5009765625t-0.0791015625,0.52734375q-0.2109375,1.5556640625-0.40869140625,2.4521484375t-0.46142578125,1.35791015625t-0.67236328125,0.59326171875t-1.04150390625,0.1845703125q-0.2109375,0-0.56689453125-0.0263671875t-0.685546875-0.1318359375t-0.56689453125-0.32958984375t-0.2373046875-0.54052734375z M28.253994140625,117.296875l0-0.7646484375q0-0.94921875,0.052734375-1.79296875q0.052734375-1.1865234375,0.052734375-1.951171875q0-0.421875,0.052734375-0.96240234375t0.263671875-0.85693359375q0.263671875-0.263671875,0.61962890625-0.54052734375t0.77783203125-0.27685546875q1.3447265625,0,2.109375,0.30322265625t0.8173828125,1.25244140625l0.10546875,0.8173828125q0.474609375-1.1337890625,1.265625-2.80810546875t1.83251953125-3.1904296875t2.3466796875-2.583984375t2.75537109375-1.06787109375q1.3447265625,0,2.21484375,1.265625t1.38427734375,3.22998046875t0.72509765625,4.376953125t0.2900390625,4.73291015625t0.10546875,4.23193359375t0.1845703125,2.88720703125q0.10546875,0.8173828125,0.35595703125,1.72705078125t0.25048828125,1.67431640625q0,0.2109375-0.30322265625,0.40869140625t-0.64599609375,0.32958984375t-0.69873046875,0.2109375t-0.51416015625,0.0791015625q-1.0283203125,0-1.46337890625-1.54248046875t-0.54052734375-3.86279296875t-0.10546875-5.02294921875t-0.1845703125-5.02294921875t-0.75146484375-3.86279296875t-1.80615234375-1.59521484375q-1.1337890625,0-2.3466796875,1.46337890625t-2.0830078125,3.88916015625q-0.84375,2.42578125-1.16015625,5.5107421875q-0.10546875,0.9755859375-0.10546875,1.951171875q0,2.1357421875,0.4482421875,4.271484375q0.052734375,0.369140625-0.30322265625,0.5537109375t-0.88330078125,0.2900390625t-1.06787109375,0.1318359375t-0.83056640625,0.0263671875q-1.0283203125,0-1.64794921875-0.72509765625t-0.96240234375-1.85888671875t-0.46142578125-2.54443359375t-0.14501953125-2.78173828125z M52.21306640625,106.1435546875q0-0.263671875,0.40869140625-0.4482421875t0.9755859375-0.263671875t1.0810546875-0.1318359375t0.77783203125-0.052734375q0.10546875-0.7119140625,0.30322265625-1.9248046875t0.48779296875-2.59716796875t0.72509765625-2.78173828125t1.0546875-2.53125t1.46337890625-1.85888671875t1.9775390625-0.72509765625l-0.052734375,0q0.369140625-0.052734375,0.72509765625-0.0791015625t0.72509765625-0.0263671875q0.8701171875,0,1.88525390625,0.3427734375t1.88525390625,0.96240234375t1.46337890625,1.48974609375t0.59326171875,1.845703125q0,0.7646484375-0.38232421875,1.64794921875t-1.33154296875,0.88330078125q-0.31640625,0-0.64599609375-0.158203125t-0.61962890625-0.3427734375q0.10546875-0.6064453125,0.10546875-1.212890625q0-0.31640625-0.0263671875-0.6064453125q-0.0791015625-0.9228515625-0.3955078125-1.62158203125t-0.90966796875-1.107421875t-1.41064453125-0.30322265625q-1.0810546875,0.158203125-1.62158203125,1.318359375t-0.75146484375,2.75537109375t-0.263671875,3.2431640625t-0.2109375,2.67626953125q1.2392578125,0.10546875,2.09619140625,0.10546875l2.14892578125,0q0.2109375,0,0.72509765625,0.0263671875t1.001953125,0.10546875t0.8701171875,0.27685546875t0.38232421875,0.51416015625q0,0.263671875-0.2109375,0.46142578125t-0.51416015625,0.27685546875t-0.6328125,0.10546875t-0.54052734375,0.0263671875q-0.9228515625,0-1.56884765625-0.0791015625t-1.2392578125-0.14501953125t-1.2392578125-0.06591796875t-1.51611328125,0.1845703125q-0.263671875,2.9267578125-0.421875,5.80078125t-0.158203125,5.80078125q0,4.587890625,0.2900390625,8.9912109375t1.0546875,8.9384765625q0.10546875,0.421875,0.1845703125,0.96240234375t0.0791015625,1.04150390625q0,0.474609375-0.2900390625,0.77783203125t-0.72509765625,0.43505859375t-0.896484375,0.1845703125t-0.83056640625,0.052734375q-1.5029296875,0-2.109375-0.46142578125t-0.8701171875-1.85888671875q-0.6591796875-3.7177734375-0.84375-7.50146484375t-0.1845703125-7.63330078125q0-3.7705078125,0.27685546875-7.52783203125t0.69873046875-7.47509765625q-0.2109375,0-0.72509765625,0.0263671875t-1.0283203125,0t-0.896484375-0.1845703125t-0.38232421875-0.5537109375z M71.663349609375,116.5322265625q0-2.42578125,0.56689453125-4.75927734375t0.96240234375-4.65380859375q0.10546875-0.6064453125,0.83056640625-0.75146484375t1.22607421875-0.14501953125q0.8701171875,0,1.3974609375,0.263671875q0.2109375,0.10546875,0.3955078125,0.2373046875t0.1845703125,0.3427734375q0,2.267578125-0.54052734375,4.4296875t-0.54052734375,4.587890625q0,0.8173828125,0.11865234375,1.54248046875t0.22412109375,1.43701171875l0.158203125,0.7646484375q0,0.2109375,0.0263671875,0.369140625t0.0791015625,0.369140625q0,0.474609375-0.67236328125,0.64599609375t-1.17333984375,0.17138671875q-0.7646484375,0-1.41064453125-0.30322265625t-1.01513671875-1.04150390625l-0.369140625-0.7646484375q-0.31640625-0.6064453125-0.31640625-1.35791015625t-0.1318359375-1.38427734375z M73.350849609375,100.6591796875l0-0.5009765625q0-1.2392578125,0.61962890625-2.21484375t1.85888671875-0.9755859375q0.158203125,0,0.30322265625,0.0263671875t0.30322265625,0.0263671875q0.31640625,0.052734375,0.83056640625,0.25048828125t0.51416015625,0.61962890625l0,0.052734375q-0.10546875,0.2109375-0.1318359375,0.43505859375t-0.1318359375,0.38232421875l0.052734375-0.052734375q-0.31640625,0.8173828125-0.51416015625,1.318359375t-0.43505859375,0.80419921875t-0.59326171875,0.43505859375t-1.01513671875,0.1318359375q-0.10546875,0-0.369140625-0.0263671875t-0.56689453125-0.10546875t-0.51416015625-0.2109375t-0.2109375-0.3955078125z M83.2034765625,117.296875l0-0.7646484375q0-0.94921875,0.052734375-1.79296875q0.052734375-1.1865234375,0.052734375-1.951171875q0-0.421875,0.052734375-0.96240234375t0.263671875-0.85693359375q0.263671875-0.263671875,0.61962890625-0.54052734375t0.77783203125-0.27685546875q1.3447265625,0,2.109375,0.30322265625t0.8173828125,1.25244140625l0.10546875,0.8173828125q0.474609375-1.1337890625,1.265625-2.80810546875t1.83251953125-3.1904296875t2.3466796875-2.583984375t2.75537109375-1.06787109375q1.3447265625,0,2.21484375,1.265625t1.38427734375,3.22998046875t0.72509765625,4.376953125t0.2900390625,4.73291015625t0.10546875,4.23193359375t0.1845703125,2.88720703125q0.10546875,0.8173828125,0.35595703125,1.72705078125t0.25048828125,1.67431640625q0,0.2109375-0.30322265625,0.40869140625t-0.64599609375,0.32958984375t-0.69873046875,0.2109375t-0.51416015625,0.0791015625q-1.0283203125,0-1.46337890625-1.54248046875t-0.54052734375-3.86279296875t-0.10546875-5.02294921875t-0.1845703125-5.02294921875t-0.75146484375-3.86279296875t-1.80615234375-1.59521484375q-1.1337890625,0-2.3466796875,1.46337890625t-2.0830078125,3.88916015625q-0.84375,2.42578125-1.16015625,5.5107421875q-0.10546875,0.9755859375-0.10546875,1.951171875q0,2.1357421875,0.4482421875,4.271484375q0.052734375,0.369140625-0.30322265625,0.5537109375t-0.88330078125,0.2900390625t-1.06787109375,0.1318359375t-0.83056640625,0.0263671875q-1.0283203125,0-1.64794921875-0.72509765625t-0.96240234375-1.85888671875t-0.46142578125-2.54443359375t-0.14501953125-2.78173828125z M107.16254882812,116.5322265625q0-2.42578125,0.56689453125-4.75927734375t0.96240234375-4.65380859375q0.10546875-0.6064453125,0.83056640625-0.75146484375t1.22607421875-0.14501953125q0.8701171875,0,1.3974609375,0.263671875q0.2109375,0.10546875,0.3955078125,0.2373046875t0.1845703125,0.3427734375q0,2.267578125-0.54052734375,4.4296875t-0.54052734375,4.587890625q0,0.8173828125,0.11865234375,1.54248046875t0.22412109375,1.43701171875l0.158203125,0.7646484375q0,0.2109375,0.0263671875,0.369140625t0.0791015625,0.369140625q0,0.474609375-0.67236328125,0.64599609375t-1.17333984375,0.17138671875q-0.7646484375,0-1.41064453125-0.30322265625t-1.01513671875-1.04150390625l-0.369140625-0.7646484375q-0.31640625-0.6064453125-0.31640625-1.35791015625t-0.1318359375-1.38427734375z M108.85004882812,100.6591796875l0-0.5009765625q0-1.2392578125,0.61962890625-2.21484375t1.85888671875-0.9755859375q0.158203125,0,0.30322265625,0.0263671875t0.30322265625,0.0263671875q0.31640625,0.052734375,0.83056640625,0.25048828125t0.51416015625,0.61962890625l0,0.052734375q-0.10546875,0.2109375-0.1318359375,0.43505859375t-0.1318359375,0.38232421875l0.052734375-0.052734375q-0.31640625,0.8173828125-0.51416015625,1.318359375t-0.43505859375,0.80419921875t-0.59326171875,0.43505859375t-1.01513671875,0.1318359375q-0.10546875,0-0.369140625-0.0263671875t-0.56689453125-0.10546875t-0.51416015625-0.2109375t-0.2109375-0.3955078125z M117.59525390625,100.421875q0-0.369140625,0.791015625-0.6328125t1.79296875-0.43505859375t1.93798828125-0.25048828125t1.27880859375-0.1318359375q0-0.7119140625,0.052734375-1.43701171875t0.2900390625-1.2919921875t0.75146484375-0.90966796875t1.43701171875-0.3427734375q0.7646484375,0,1.16015625,0.1845703125t0.84375,0.7646484375q0.10546875,0.31640625,0.10546875,0.6064453125l0,0.88330078125t-0.052734375,0.90966796875q0.9755859375-0.10546875,1.93798828125-0.25048828125t1.93798828125-0.14501953125q0.7119140625,0,0.9755859375,0.0263671875t0.52734375,0.6328125q0.2109375,0.6064453125-0.51416015625,0.9228515625t-1.740234375,0.474609375t-2.01708984375,0.2373046875t-1.212890625,0.0791015625q-0.31640625,4.53515625-0.64599609375,8.9912109375t-0.32958984375,9.0439453125q0,2.056640625,0.1318359375,4.2451171875t0.73828125,4.1396484375q0.158203125,0.6064453125,0.52734375,1.1337890625t0.369140625,1.1337890625q0,0.369140625-0.2900390625,0.580078125t-0.69873046875,0.35595703125t-0.8173828125,0.17138671875t-0.67236328125,0.0263671875q-1.6611328125,0-2.53125-1.2392578125t-1.25244140625-2.96630859375t-0.40869140625-3.54638671875t-0.0263671875-2.953125q0-2.3203125,0.09228515625-4.74609375t0.22412109375-4.798828125t0.369140625-4.640625t0.5537109375-4.21875q-0.9228515625,0.10546875-1.80615234375,0.2373046875t-1.80615234375,0.1318359375q-0.2109375,0-0.56689453125-0.0263671875t-0.67236328125-0.1318359375t-0.54052734375-0.2900390625t-0.22412109375-0.52734375z M137.75745117187,111.28515625q0-0.7646484375,0.43505859375-1.001953125t1.09423828125-0.2373046875q1.0810546875,0,1.64794921875,0.40869140625t0.56689453125,1.43701171875q0,1.2392578125,0.1845703125,3.09814453125t0.54052734375,3.6123046875t0.84375,3.01904296875t1.01513671875,1.265625q0.9755859375,0,1.72705078125-1.5029296875t1.318359375-3.69140625t0.9755859375-4.70654296875t0.56689453125-4.49560546875q0.10546875-1.0810546875,0.51416015625-1.56884765625t1.48974609375-0.48779296875q1.2392578125,0,1.80615234375,1.0283203125t0.72509765625,2.53125q0.1318359375,1.2919921875,0.1318359375,2.689453125l0,0.4482421875l0,1.0546875q0,1.001953125,0.0263671875,1.79296875l0.7646484375,16.1630859375l0.10546875,2.689453125q0.052734375,0.369140625,0.0791015625,0.69873046875t0.0263671875,0.69873046875q0,1.5029296875-0.64599609375,1.93798828125t-2.09619140625,0.43505859375q-0.31640625,0-0.80419921875-0.052734375t-0.94921875-0.2109375t-0.791015625-0.43505859375t-0.32958984375-0.69873046875l0.10546875-0.263671875q0.1318359375-1.58203125,0.1318359375-3.322265625l0-0.5537109375q-0.0263671875-2.056640625-0.1318359375-4.166015625t-0.2373046875-4.21875t-0.1318359375-4.060546875q-0.369140625,0.8173828125-0.85693359375,1.6875t-1.1337890625,1.56884765625t-1.46337890625,1.16015625t-1.845703125,0.46142578125q-1.5029296875,0-2.478515625-0.791015625t-1.51611328125-2.056640625t-0.77783203125-2.83447265625t-0.31640625-3.1376953125t-0.10546875-2.99267578125t-0.2109375-2.3994140625z M170.01348632812,117.1650390625q0-1.79296875,0.48779296875-3.4541015625t1.46337890625-2.96630859375t2.43896484375-2.0830078125t3.38818359375-0.77783203125q1.1865234375,0,2.62353515625,0.35595703125t2.70263671875,1.0546875t2.109375,1.77978515625t0.84375,2.478515625q0,0.6591796875-0.22412109375,1.001953125t-0.90966796875,0.3427734375l-0.2900390625-0.052734375q0.7646484375,2.056640625,1.318359375,4.21875t1.0810546875,4.32421875q0.2109375,0.421875,0.31640625,0.75146484375t0.10546875,0.64599609375q0,0.421875-0.2373046875,0.69873046875t-0.61962890625,0.40869140625t-0.791015625,0.1845703125t-0.72509765625,0.052734375q-1.1337890625,0-1.70068359375-0.3955078125t-0.8173828125-1.0810546875t-0.30322265625-1.54248046875t-0.2109375-1.72705078125q-0.31640625,1.0283203125-0.83056640625,2.00390625t-1.212890625,1.75341796875t-1.64794921875,1.2392578125t-2.1357421875,0.46142578125q-1.740234375,0-2.9267578125-1.001953125t-1.91162109375-2.46533203125t-1.0546875-3.12451171875t-0.32958984375-3.0849609375z M173.75762695312,116.7958984375q0,0.9755859375,0.1318359375,2.056640625t0.43505859375,2.1357421875t0.77783203125,1.99072265625t1.1865234375,1.64794921875q1.2919921875-1.3974609375,1.91162109375-3.4013671875t1.107421875-3.86279296875t1.107421875-3.1904296875t1.91162109375-1.33154296875q0.8173828125,0,1.37109375,0.2900390625q-0.263671875-0.6591796875-0.8701171875-1.27880859375t-1.35791015625-1.1337890625t-1.5556640625-0.84375t-1.51611328125-0.32958984375q-0.2109375,0-0.48779296875,0.06591796875t-0.43505859375,0.01318359375q-1.0810546875,0.31640625-1.77978515625,1.09423828125t-1.1337890625,1.83251953125t-0.61962890625,2.162109375t-0.1845703125,2.0830078125z M192.89150390625,117.296875l0-0.7646484375q0-0.94921875,0.052734375-1.79296875q0.052734375-1.1865234375,0.052734375-1.951171875q0-0.421875,0.052734375-0.96240234375t0.263671875-0.85693359375q0.263671875-0.263671875,0.61962890625-0.54052734375t0.77783203125-0.27685546875q1.3447265625,0,2.109375,0.30322265625t0.8173828125,1.25244140625l0.10546875,0.8173828125q0.474609375-1.1337890625,1.265625-2.80810546875t1.83251953125-3.1904296875t2.3466796875-2.583984375t2.75537109375-1.06787109375q1.3447265625,0,2.21484375,1.265625t1.38427734375,3.22998046875t0.72509765625,4.376953125t0.2900390625,4.73291015625t0.10546875,4.23193359375t0.1845703125,2.88720703125q0.10546875,0.8173828125,0.35595703125,1.72705078125t0.25048828125,1.67431640625q0,0.2109375-0.30322265625,0.40869140625t-0.64599609375,0.32958984375t-0.69873046875,0.2109375t-0.51416015625,0.0791015625q-1.0283203125,0-1.46337890625-1.54248046875t-0.54052734375-3.86279296875t-0.10546875-5.02294921875t-0.1845703125-5.02294921875t-0.75146484375-3.86279296875t-1.80615234375-1.59521484375q-1.1337890625,0-2.3466796875,1.46337890625t-2.0830078125,3.88916015625q-0.84375,2.42578125-1.16015625,5.5107421875q-0.10546875,0.9755859375-0.10546875,1.951171875q0,2.1357421875,0.4482421875,4.271484375q0.052734375,0.369140625-0.30322265625,0.5537109375t-0.88330078125,0.2900390625t-1.06787109375,0.1318359375t-0.83056640625,0.0263671875q-1.0283203125,0-1.64794921875-0.72509765625t-0.96240234375-1.85888671875t-0.46142578125-2.54443359375t-0.14501953125-2.78173828125z M216.85057617187,116.8486328125q0-2.056640625,0.43505859375-3.73095703125t1.38427734375-2.83447265625t2.49169921875-1.80615234375t3.75732421875-0.64599609375q1.2392578125,0,2.53125,0.32958984375t2.21484375,1.22607421875q0-0.52734375,0.10546875-2.17529296875t0.263671875-3.83642578125t0.32958984375-4.587890625t0.30322265625-4.4560546875t0.2373046875-3.4541015625t0.158203125-1.58203125q0.263671875-0.7646484375,0.9755859375-0.90966796875t1.3447265625-0.14501953125q1.6611328125,0,2.04345703125,0.52734375t0.38232421875,2.109375q0,5.7744140625-0.51416015625,11.49609375t-0.51416015625,11.49609375q0,3.7177734375,0.14501953125,7.47509765625t1.04150390625,7.39599609375l0.2900390625,0.263671875l0.158203125,0.474609375l-0.3955078125,0.6064453125q-1.001953125,0.6328125-2.3203125,0.6328125l-0.10546875,0q-1.3447265625,0-2.478515625-0.6328125q-0.421875-0.263671875-0.69873046875-1.56884765625t-0.43505859375-2.8740234375t-0.2373046875-3.01904296875t-0.1318359375-2.056640625q-0.9228515625,2.109375-2.51806640625,3.62548828125t-4.02099609375,1.51611328125q-1.8984375,0-3.111328125-0.8173828125t-1.88525390625-2.0830078125t-0.94921875-2.83447265625t-0.27685546875-3.12451171875z M220.04100585937,117.0068359375q0,0.6064453125,0.14501953125,1.79296875t0.46142578125,2.373046875t0.88330078125,2.109375t1.48974609375,0.9228515625q1.2392578125-0.6064453125,2.2412109375-2.01708984375t1.72705078125-3.111328125t1.1337890625-3.4013671875t0.40869140625-2.93994140625q0-1.5556640625-1.1337890625-2.583984375t-2.7158203125-1.0283203125q-0.474609375,0-0.96240234375,0.1845703125t-0.90966796875,0.421875q-0.9755859375,0.9228515625-1.51611328125,1.67431640625t-0.8173828125,1.5556640625t-0.35595703125,1.77978515625t-0.0791015625,2.267578125z M252.15202148437,89.78271484375q-0.06591796875-0.80419921875,0.10546875-1.3974609375t0.685546875-0.9755859375t1.64794921875-0.38232421875l4.2451171875,0q0.8701171875,0,2.28076171875,0.09228515625t3.0322265625,0.27685546875t3.22998046875,0.56689453125t2.93994140625,0.94921875t2.162109375,1.3974609375t0.83056640625,1.96435546875q0,1.6083984375-0.93603515625,3.01904296875t-2.3466796875,2.54443359375t-2.9794921875,2.01708984375t-2.80810546875,1.59521484375q4.904296875,1.0810546875,7.6728515625,4.482421875t2.7685546875,8.490234375q0,2.689453125-1.0283203125,5.31298828125t-2.80810546875,4.73291015625t-4.21875,3.4013671875t-5.23388671875,1.2919921875q-0.369140625,0-0.83056640625-0.0791015625t-0.84375-0.25048828125t-0.6591796875-0.48779296875t-0.27685546875-0.8173828125q0-2.3203125,2.5048828125-2.3203125q0.421875,0,0.98876953125,0.11865234375t0.88330078125,0.48779296875q1.4501953125-0.6064453125,2.64990234375-1.9248046875t2.0302734375-2.93994140625t1.2919921875-3.4013671875t0.46142578125-3.22998046875q0-1.740234375-0.51416015625-3.54638671875t-1.48974609375-3.3486328125t-2.3994140625-2.59716796875t-3.26953125-1.318359375q-0.474609375-0.052734375-1.04150390625-0.0791015625l-1.1337890625-0.052734375t-1.107421875-0.158203125t-0.93603515625-0.421875q0.2109375,4.376953125,0.54052734375,8.7275390625t0.88330078125,8.7275390625q0.2109375,0.2109375,0.2900390625,0.61962890625t0.1318359375,0.8701171875t0.052734375,0.88330078125l0,0.7119140625q0,0.474609375-0.31640625,0.77783203125t-0.75146484375,0.48779296875t-0.9228515625,0.2373046875t-0.85693359375,0.052734375q-1.1865234375,0-1.8193359375-0.31640625t-0.896484375-0.9228515625t-0.3427734375-1.38427734375t-0.1318359375-1.70068359375q-0.7119140625-7.3564453125-1.0283203125-14.5546875t-0.31640625-14.5546875q0-0.8701171875-0.06591796875-1.67431640625z M257.01676757812,88.662109375q0,3.2431640625,0.2109375,6.49951171875t0.369140625,6.49951171875q1.1865234375-0.7119140625,3.111328125-1.67431640625t3.73095703125-2.12255859375t3.09814453125-2.5576171875t1.2919921875-3.0322265625q0-1.2919921875-1.529296875-1.96435546875t-3.5595703125-1.001953125t-3.96826171875-0.40869140625t-2.75537109375-0.2373046875z M280.05298828125,118.24609375q0-1.845703125,0.40869140625-4.3505859375t1.38427734375-4.74609375t2.57080078125-3.81005859375t4.02099609375-1.56884765625q2.267578125,0,3.4013671875,1.30517578125t1.1337890625,3.52001953125q0,1.4501953125-0.54052734375,3.17724609375t-1.54248046875,3.26953125t-2.373046875,2.57080078125t-3.05859375,1.0283203125l-0.685546875-0.052734375q0,0.7119140625,0.2109375,1.91162109375t0.61962890625,2.38623046875t1.0546875,2.0830078125t1.56884765625,0.896484375q1.3447265625,0,2.583984375-1.0810546875t2.3466796875-2.3994140625t2.056640625-2.3994140625t1.740234375-1.0810546875q0.421875,0,0.8701171875,0.1318359375t0.5009765625,0.73828125q0,0.369140625-0.19775390625,0.6064453125t-0.35595703125,0.52734375q-0.8173828125,1.3974609375-1.77978515625,2.6630859375t-2.17529296875,2.2939453125t-2.64990234375,1.62158203125t-3.17724609375,0.59326171875q-2.267578125,0-3.7705078125-0.80419921875t-2.42578125-2.162109375t-1.33154296875-3.1376953125t-0.40869140625-3.73095703125z M284.77271484375,116.2421875l0.73828125,0.6591796875q0.52734375,0.474609375,1.0546875,0.2109375t0.94921875-0.96240234375t0.77783203125-1.72705078125t0.6328125-2.109375t0.40869140625-2.109375t0.1318359375-1.7138671875l0-0.896484375t-0.0791015625-0.94921875t-0.27685546875-0.75146484375t-0.61962890625-0.38232421875q-0.1318359375-0.0263671875-0.2373046875-0.0263671875q-0.896484375,0-1.529296875,1.1337890625q-0.685546875,1.265625-1.107421875,3.07177734375t-0.6064453125,3.70458984375t-0.2373046875,2.84765625z M302.08725585938,111.28515625q0-0.7646484375,0.43505859375-1.001953125t1.09423828125-0.2373046875q1.0810546875,0,1.64794921875,0.40869140625t0.56689453125,1.43701171875q0,1.2392578125,0.1845703125,3.09814453125t0.54052734375,3.6123046875t0.84375,3.01904296875t1.01513671875,1.265625q0.9755859375,0,1.72705078125-1.5029296875t1.318359375-3.69140625t0.9755859375-4.70654296875t0.56689453125-4.49560546875q0.10546875-1.0810546875,0.51416015625-1.56884765625t1.48974609375-0.48779296875q1.2392578125,0,1.80615234375,1.0283203125t0.72509765625,2.53125q0.1318359375,1.2919921875,0.1318359375,2.689453125l0,0.4482421875l0,1.0546875q0,1.001953125,0.0263671875,1.79296875l0.7646484375,16.1630859375l0.10546875,2.689453125q0.052734375,0.369140625,0.0791015625,0.69873046875t0.0263671875,0.69873046875q0,1.5029296875-0.64599609375,1.93798828125t-2.09619140625,0.43505859375q-0.31640625,0-0.80419921875-0.052734375t-0.94921875-0.2109375t-0.791015625-0.43505859375t-0.32958984375-0.69873046875l0.10546875-0.263671875q0.1318359375-1.58203125,0.1318359375-3.322265625l0-0.5537109375q-0.0263671875-2.056640625-0.1318359375-4.166015625t-0.2373046875-4.21875t-0.1318359375-4.060546875q-0.369140625,0.8173828125-0.85693359375,1.6875t-1.1337890625,1.56884765625t-1.46337890625,1.16015625t-1.845703125,0.46142578125q-1.5029296875,0-2.478515625-0.791015625t-1.51611328125-2.056640625t-0.77783203125-2.83447265625t-0.31640625-3.1376953125t-0.10546875-2.99267578125t-0.2109375-2.3994140625z M323.5414453125,117.666015625q0-1.5029296875,0.38232421875-3.09814453125t1.212890625-2.8740234375t2.09619140625-2.0830078125t3.05859375-0.80419921875q1.3447265625,0,2.83447265625,0.46142578125t2.72900390625,1.318359375t2.01708984375,2.09619140625t0.77783203125,2.7685546875q0,1.845703125-0.67236328125,3.5068359375t-1.88525390625,2.96630859375t-2.83447265625,2.056640625t-3.52001953125,0.75146484375q-1.5556640625,0-2.7158203125-0.56689453125t-1.93798828125-1.51611328125t-1.16015625-2.2412109375t-0.38232421875-2.7421875z M327.417421875,117.61328125q0,0.474609375,0.14501953125,1.3974609375t0.43505859375,1.80615234375t0.75146484375,1.529296875t1.12060546875,0.59326171875q1.3974609375-0.158203125,2.30712890625-0.90966796875t1.4765625-1.83251953125t0.791015625-2.3466796875t0.22412109375-2.3994140625q0-1.4501953125-0.56689453125-2.42578125t-1.85888671875-1.58203125q0,0.052734375,0.052734375,0.052734375t0.052734375-0.052734375l-0.6591796875-0.158203125q-0.263671875-0.10546875-0.64599609375-0.2373046875t-0.75146484375-0.580078125q-1.0283203125,0.369140625-1.59521484375,0.94921875t-0.85693359375,1.41064453125t-0.35595703125,1.99072265625t-0.06591796875,2.794921875z M343.54543945313,117.296875l0-0.7646484375q0-0.94921875,0.052734375-1.79296875q0.052734375-1.1865234375,0.052734375-1.951171875q0-0.421875,0.052734375-0.96240234375t0.263671875-0.85693359375q0.263671875-0.263671875,0.61962890625-0.54052734375t0.77783203125-0.27685546875q1.3447265625,0,2.109375,0.30322265625t0.8173828125,1.25244140625l0.10546875,0.8173828125q0.474609375-1.1337890625,1.265625-2.80810546875t1.83251953125-3.1904296875t2.3466796875-2.583984375t2.75537109375-1.06787109375q1.3447265625,0,2.21484375,1.265625t1.38427734375,3.22998046875t0.72509765625,4.376953125t0.2900390625,4.73291015625t0.10546875,4.23193359375t0.1845703125,2.88720703125q0.10546875,0.8173828125,0.35595703125,1.72705078125t0.25048828125,1.67431640625q0,0.2109375-0.30322265625,0.40869140625t-0.64599609375,0.32958984375t-0.69873046875,0.2109375t-0.51416015625,0.0791015625q-1.0283203125,0-1.46337890625-1.54248046875t-0.54052734375-3.86279296875t-0.10546875-5.02294921875t-0.1845703125-5.02294921875t-0.75146484375-3.86279296875t-1.80615234375-1.59521484375q-1.1337890625,0-2.3466796875,1.46337890625t-2.0830078125,3.88916015625q-0.84375,2.42578125-1.16015625,5.5107421875q-0.10546875,0.9755859375-0.10546875,1.951171875q0,2.1357421875,0.4482421875,4.271484375q0.052734375,0.369140625-0.30322265625,0.5537109375t-0.88330078125,0.2900390625t-1.06787109375,0.1318359375t-0.83056640625,0.0263671875q-1.0283203125,0-1.64794921875-0.72509765625t-0.96240234375-1.85888671875t-0.46142578125-2.54443359375t-0.14501953125-2.78173828125z M367.50451171875,116.8486328125q0-2.056640625,0.43505859375-3.73095703125t1.38427734375-2.83447265625t2.49169921875-1.80615234375t3.75732421875-0.64599609375q1.2392578125,0,2.53125,0.32958984375t2.21484375,1.22607421875q0-0.52734375,0.10546875-2.17529296875t0.263671875-3.83642578125t0.32958984375-4.587890625t0.30322265625-4.4560546875t0.2373046875-3.4541015625t0.158203125-1.58203125q0.263671875-0.7646484375,0.9755859375-0.90966796875t1.3447265625-0.14501953125q1.6611328125,0,2.04345703125,0.52734375t0.38232421875,2.109375q0,5.7744140625-0.51416015625,11.49609375t-0.51416015625,11.49609375q0,3.7177734375,0.14501953125,7.47509765625t1.04150390625,7.39599609375l0.2900390625,0.263671875l0.158203125,0.474609375l-0.3955078125,0.6064453125q-1.001953125,0.6328125-2.3203125,0.6328125l-0.10546875,0q-1.3447265625,0-2.478515625-0.6328125q-0.421875-0.263671875-0.69873046875-1.56884765625t-0.43505859375-2.8740234375t-0.2373046875-3.01904296875t-0.1318359375-2.056640625q-0.9228515625,2.109375-2.51806640625,3.62548828125t-4.02099609375,1.51611328125q-1.8984375,0-3.111328125-0.8173828125t-1.88525390625-2.0830078125t-0.94921875-2.83447265625t-0.27685546875-3.12451171875z M370.69494140625,117.0068359375q0,0.6064453125,0.14501953125,1.79296875t0.46142578125,2.373046875t0.88330078125,2.109375t1.48974609375,0.9228515625q1.2392578125-0.6064453125,2.2412109375-2.01708984375t1.72705078125-3.111328125t1.1337890625-3.4013671875t0.40869140625-2.93994140625q0-1.5556640625-1.1337890625-2.583984375t-2.7158203125-1.0283203125q-0.474609375,0-0.96240234375,0.1845703125t-0.90966796875,0.421875q-0.9755859375,0.9228515625-1.51611328125,1.67431640625t-0.8173828125,1.5556640625t-0.35595703125,1.77978515625t-0.0791015625,2.267578125z M403.29375,125.4970703125q0-0.6591796875,0.0791015625-1.33154296875t0.0791015625-1.33154296875l0-0.421875q0-0.8173828125,0.67236328125-1.0283203125t1.38427734375-0.2109375q0.8173828125,0,1.56884765625,0.3427734375t0.75146484375,1.318359375q0.158203125,0.474609375,0.158203125,1.1337890625l0,1.2392578125q0,0.9228515625-0.64599609375,1.27880859375t-1.72705078125,0.35595703125q-0.7646484375,0-1.54248046875-0.27685546875t-0.77783203125-1.06787109375z M414.54383789063,125.4970703125q0-0.6591796875,0.0791015625-1.33154296875t0.0791015625-1.33154296875l0-0.421875q0-0.8173828125,0.67236328125-1.0283203125t1.38427734375-0.2109375q0.8173828125,0,1.56884765625,0.3427734375t0.75146484375,1.318359375q0.158203125,0.474609375,0.158203125,1.1337890625l0,1.2392578125q0,0.9228515625-0.64599609375,1.27880859375t-1.72705078125,0.35595703125q-0.7646484375,0-1.54248046875-0.27685546875t-0.77783203125-1.06787109375z M425.79392578125,125.4970703125q0-0.6591796875,0.0791015625-1.33154296875t0.0791015625-1.33154296875l0-0.421875q0-0.8173828125,0.67236328125-1.0283203125t1.38427734375-0.2109375q0.8173828125,0,1.56884765625,0.3427734375t0.75146484375,1.318359375q0.158203125,0.474609375,0.158203125,1.1337890625l0,1.2392578125q0,0.9228515625-0.64599609375,1.27880859375t-1.72705078125,0.35595703125q-0.7646484375,0-1.54248046875-0.27685546875t-0.77783203125-1.06787109375z"/><path fill="#" d=""/></svg>
